/* XPM */
static const char *refresh_xpm[] = {
/* columns rows colors chars-per-pixel */
"16 16 107 2 ",
"   c None",
".  c #321D16",
"X  c #5E507A",
"o  c #87581D",
"O  c #8F5F21",
"+  c #9A6A2B",
"@  c #9C6B2C",
"#  c #886534",
"$  c #976E35",
"%  c #A4722E",
"&  c #AC7935",
"*  c #AC7B38",
"=  c #B07E3A",
"-  c #A03C5D",
";  c #A13062",
":  c #874774",
">  c #BB8436",
",  c #B1803C",
"<  c #BE8C45",
"1  c #C08C42",
"2  c #C79246",
"3  c #CA974D",
"4  c #D49E53",
"5  c #D6A256",
"6  c #DBAF6E",
"7  c #DFB77D",
"8  c #3630A6",
"9  c #3835A0",
"0  c #3831A6",
"q  c #3931A6",
"w  c #3E34A5",
"e  c #4A38A5",
"r  c #523CA3",
"t  c #4533B1",
"y  c #4533B2",
"u  c #4435B3",
"i  c #52498D",
"p  c #4A4699",
"a  c #524794",
"s  c #614486",
"d  c #6D4285",
"f  c #6A4788",
"g  c #6D4B8C",
"h  c #634C98",
"j  c #5E5EB7",
"k  c #7E63A7",
"l  c #6B5FCD",
"z  c #6F63CE",
"x  c #7768C5",
"c  c #7064CF",
"v  c #7166CF",
"b  c #7368CF",
"n  c #776ACD",
"m  c #766AD0",
"M  c #786CD1",
"N  c #786DD1",
"B  c #923B94",
"V  c #BC78B1",
"C  c #9170C7",
"Z  c #938DAB",
"A  c #AEACB3",
"S  c #E2BC86",
"D  c #C0B4A0",
"F  c #E4C18F",
"G  c #8283C2",
"H  c #998ECF",
"J  c #8C80D6",
"K  c #8F84D8",
"L  c #9186D9",
"P  c #9C90DB",
"I  c #9F95DE",
"U  c #A59DC9",
"Y  c #A097DE",
"T  c #A298DF",
"R  c #A399DF",
"E  c #A59BDE",
"W  c #A59BDF",
"Q  c #BA9EDC",
"!  c #A6A0D3",
"~  c #A99EE0",
"^  c #ACA1E0",
"/  c #ADA3E0",
"(  c #ACA2E1",
")  c #AEA3E0",
"_  c #B1A7E3",
"`  c #B2A8E3",
"'  c #B5AAE3",
"]  c #B6ABE3",
"[  c #B6AEE4",
"{  c #B9B0E6",
"}  c #BDB2E6",
"|  c #BEB4E6",
" . c #BEB4E7",
".. c #C998D7",
"X. c #C1B6E7",
"o. c #C0B7E7",
"O. c #C2B8E7",
"+. c #C1B9E9",
"@. c #C4BAE8",
"#. c #C7BDE9",
"$. c #C9BFE9",
"%. c #CCC1EB",
"&. c #CCC3EB",
"*. c #CFC5EC",
"=. c #CFC6EC",
"-. c #D2C9ED",
";. c #FBF7EF",
/* pixels */
"                                ",
"              X i h f + o o     ",
"            9 j %.[ N i ;.> o   ",
"  : w q q 8 G &.-. .+.A S %     ",
"  g #.X.X.%.&.' @.R Q $ F O     ",
"  a ^ v z K I { | R H & 6 o     ",
"  p ( v m K ~ o.` I U 1 7 o     ",
"- ! P m M K ~ &.| { Z 5 2 o     ",
"; ] c l J ` | / x C A 5 = o     ",
"B ~ ! ( ] n u k ..V . 4 +       ",
"d r u t e s         @ 5 o       ",
"                  o , 5 o       ",
"                  o 3 5 o       ",
"                  o 5 < o       ",
"                  o 5 *         ",
"                  o o o         "
};
