/* XPM */
static char * door_archway_small_xpm[] = {
"16 16 26 1",
" 	c #999999",
".	c #ECECEC",
"+	c #EAEAEA",
"@	c #000000",
"#	c #E8E8E8",
"$	c #CAC8A6",
"%	c #CDCBAA",
"&	c #D0CEAE",
"*	c #E5E5E5",
"=	c #A4A286",
"-	c #E3E3E3",
";	c #D0D0D0",
">	c #E1E1E1",
",	c #DFDFDF",
"'	c #D0CEAA",
")	c #DDDDDD",
"!	c #CECCA9",
"~	c #DBDBDB",
"{	c #CECCA8",
"]	c #D9D9D9",
"^	c #D0CFAC",
"/	c #D7D7D7",
"(	c #C9C8AB",
"_	c #D4D4D4",
":	c #918D75",
"<	c #D2D2D2",
"                ",
" .............. ",
" ++@@@@@@@@@@++ ",
" ##@$$%&&%$$@## ",
" **@$=@@@@=$@** ",
" --@$@;;;;@$@-- ",
" >>@$@;;;;@$@>> ",
" ,,@'@;;;;@'@,, ",
" ))@!@;;;;@!@)) ",
" ~~@{@;;;;@{@~~ ",
" ]]@^@;;;;@^@]] ",
" //@(@;;;;@(@// ",
" __@:@;;;;@:@__ ",
" <_@@@;;;;@@@_< ",
" ;;;;;;;;;;;;;; ",
"                "};
