/* XPM */
static char * door_locked_xpm[] = {
"32 32 141 2",
"  	c #999999",
". 	c #FFFFFF",
"+ 	c #ECECEC",
"@ 	c #EBEBEB",
"# 	c #EAEAEA",
"$ 	c #E9E9E9",
"% 	c #000000",
"& 	c #E8E8E8",
"* 	c #7B543C",
"= 	c #B4814C",
"- 	c #F3B974",
"; 	c #EAB272",
"> 	c #C38A50",
", 	c #EBB06B",
"' 	c #F7C07E",
") 	c #BC834A",
"! 	c #E6AB67",
"~ 	c #F3BB7A",
"{ 	c #E7E7E7",
"] 	c #745B2E",
"^ 	c #AD7F45",
"/ 	c #E7AB67",
"( 	c #EAB06C",
"_ 	c #BC8249",
": 	c #F1B771",
"< 	c #BB8249",
"[ 	c #DFA260",
"} 	c #E5E5E5",
"| 	c #705F34",
"1 	c #B18147",
"2 	c #E4A966",
"3 	c #C0874D",
"4 	c #EEB36E",
"5 	c #F2B873",
"6 	c #BB8149",
"7 	c #E1A562",
"8 	c #E4E4E4",
"9 	c #75543C",
"0 	c #8A746F",
"a 	c #A78D81",
"b 	c #816A58",
"c 	c #8F7975",
"d 	c #9F918E",
"e 	c #8D8D8D",
"f 	c #8C8C8C",
"g 	c #979797",
"h 	c #838383",
"i 	c #E3E3E3",
"j 	c #806646",
"k 	c #9F826F",
"l 	c #A37F60",
"m 	c #A48061",
"n 	c #A2836F",
"o 	c #9B8B82",
"p 	c #636363",
"q 	c #797979",
"r 	c #6F6F6F",
"s 	c #585858",
"t 	c #E2E2E2",
"u 	c #795939",
"v 	c #B3794B",
"w 	c #F2B874",
"x 	c #EAB478",
"y 	c #C3A488",
"z 	c #6C6C6C",
"A 	c #757575",
"B 	c #707070",
"C 	c #5F5F5F",
"D 	c #E1E1E1",
"E 	c #716732",
"F 	c #B27D4B",
"G 	c #E1A564",
"H 	c #C1A184",
"I 	c #767676",
"J 	c #3A3A3A",
"K 	c #676767",
"L 	c #626262",
"M 	c #E0E0E0",
"N 	c #7F6747",
"O 	c #B17E48",
"P 	c #F2B975",
"Q 	c #BD834A",
"R 	c #C4A58A",
"S 	c #888888",
"T 	c #6E6E6E",
"U 	c #DFDFDF",
"V 	c #7F5535",
"W 	c #917058",
"X 	c #BE9A7F",
"Y 	c #A17F5D",
"Z 	c #97745B",
"` 	c #AA968B",
" .	c #5B5B5B",
"..	c #6D6D6D",
"+.	c #686868",
"@.	c #4E4E4E",
"#.	c #DEDEDE",
"$.	c #7C6145",
"%.	c #968280",
"&.	c #856D64",
"*.	c #856B5B",
"=.	c #978482",
"-.	c #866F64",
";.	c #806652",
">.	c #907B6F",
",.	c #846C5D",
"'.	c #806651",
").	c #DDDDDD",
"!.	c #6A5937",
"~.	c #B07942",
"{.	c #BA8148",
"].	c #DCDCDC",
"^.	c #685B3C",
"/.	c #B07F45",
"(.	c #F7BE78",
"_.	c #EAB374",
":.	c #C1884E",
"<.	c #F7C180",
"[.	c #E9AD6A",
"}.	c #F5BE7E",
"|.	c #DBDBDB",
"1.	c #6F5B3F",
"2.	c #AD7941",
"3.	c #ECB26E",
"4.	c #EDB36E",
"5.	c #F4BD7B",
"6.	c #E2A663",
"7.	c #DADADA",
"8.	c #D9D9D9",
"9.	c #D8D8D8",
"0.	c #D7D7D7",
"a.	c #3C3C3C",
"b.	c #333333",
"c.	c #D5D5D5",
"d.	c #D4D4D4",
"e.	c #505050",
"f.	c #D3D3D3",
"g.	c #D2D2D2",
"h.	c #D1D1D1",
"i.	c #D0D0D0",
"j.	c #CFCFCF",
"                                                                ",
"  . . . . . . . . . . . . . . . . . . . . . . . . . . . . . .   ",
"  . + + + + + + + + + + + + + + + + + + + + + + + + + + + + .   ",
"  . @ @ @ @ @ @ @ @ @ @ @ @ @ @ @ @ @ @ @ @ @ @ @ @ @ @ @ @ .   ",
"  . # # # # # # # # # # # # # # # # # # # # # # # # # # # # .   ",
"  . $ $ $ $ $ $ $ $ % % % % % % % % % % % % $ $ $ $ $ $ $ $ .   ",
"  . & & & & & & & & % * = - ; > , ' ) ! ~ % & & & & & & & & .   ",
"  . { { { { { { { { % ] ^ / ( _ / : < [ : % { { { { { { { { .   ",
"  . } } } } } } } } % | 1 , 2 3 4 5 6 7 ( % } } } } } } } } .   ",
"  . 8 8 8 8 8 8 8 8 % 9 0 a b c d e f g h % 8 8 8 8 8 8 8 8 .   ",
"  . i i i i i i i i % j k l m n o p q r s % i i i i i i i i .   ",
"  . t t t t t t t t % u v w x _ y z A B C % t t t t t t t t .   ",
"  . D D D D D D D D % E F / G _ H I J K L % D D D D D D D D .   ",
"  . M M M M M M M M % N O P x Q R e B S T % M M M M M M M M .   ",
"  . U U U U U U U U % V W X Y Z `  ...+.@.% U U U U U U U U .   ",
"  . #.#.#.#.#.#.#.#.% $.%.&.*.=.-.;.>.,.'.% #.#.#.#.#.#.#.#..   ",
"  . ).).).).).).).).% !.~./ 2 _ , 5 {.[ ( % ).).).).).).).)..   ",
"  . ].].].].].].].].% ^./.(._.:.: <.) [.}.% ].].].].].].].]..   ",
"  . |.|.|.|.|.|.|.].% 1.2.3.; _ 4.5.< 6.~ % ].|.|.|.|.|.|.|..   ",
"  . 7.7.7.7.7.7.7.7.% % % % % % % % % % % % 7.7.7.7.7.7.7.7..   ",
"  . 8.8.8.8.8.8.8.8.8.8.8.8.8.8.8.8.8.8.8.8.8.8.8.8.8.8.8.8..   ",
"  . 9.9.9.9.9.9.9.9.9.9.9.9.9.9.9.9.9.9.9.9.9.9.9.9.9.9.9.9..   ",
"  . 0.0.0.0.a.0.0.b.b.b.0.b.b.b.0.a.0.a.0.b.b.b.0.b.b.c.0.0..   ",
"  . c.c.c.c.a.c.c.a.c.a.c.a.c.c.c.a.c.a.c.a.c.c.c.a.c.a.c.c..   ",
"  . d.d.d.d.a.d.d.a.d.a.d.a.d.d.d.b.b.d.d.b.b.e.d.a.d.a.d.d..   ",
"  . f.f.f.f.a.f.f.a.f.a.f.a.f.f.f.a.f.a.f.a.f.f.f.a.f.a.f.f..   ",
"  . g.g.g.g.b.b.h.b.b.b.g.b.b.b.g.a.g.a.g.b.b.b.g.b.b.h.g.g..   ",
"  . h.h.h.h.h.h.h.h.h.h.h.h.h.h.h.h.h.h.h.h.h.h.h.h.h.h.h.h..   ",
"  . i.i.i.i.i.i.i.i.i.i.i.i.i.i.i.i.i.i.i.i.i.i.i.i.i.i.i.i..   ",
"  . j.j.j.j.j.j.j.j.j.j.j.j.j.j.j.j.j.j.j.j.j.j.j.j.j.j.j.j..   ",
"  . . . . . . . . . . . . . . . . . . . . . . . . . . . . . .   ",
"                                                                "};
