/* XPM */
static char * door_normal_alt_xpm[] = {
"32 32 165 2",
"  	c #999999",
". 	c #FFFFFF",
"+ 	c #ECECEC",
"@ 	c #EBEBEB",
"# 	c #EAEAEA",
"$ 	c #E9E9E9",
"% 	c #000000",
"& 	c #E8E8E8",
"* 	c #412F1B",
"= 	c #735231",
"- 	c #52371B",
"; 	c #42290D",
"> 	c #694620",
", 	c #462C10",
"' 	c #5E4225",
") 	c #674829",
"! 	c #382209",
"~ 	c #674624",
"{ 	c #E7E7E7",
"] 	c #6A4826",
"^ 	c #976D46",
"/ 	c #6E4D2D",
"( 	c #704E2D",
"_ 	c #8D6541",
": 	c #4C3115",
"< 	c #775433",
"[ 	c #835C3B",
"} 	c #462C13",
"| 	c #8A613D",
"1 	c #E5E5E5",
"2 	c #895C32",
"3 	c #B57F50",
"4 	c #724B23",
"5 	c #916335",
"6 	c #AC7948",
"7 	c #623E1A",
"8 	c #9F7047",
"9 	c #A26E44",
"0 	c #603816",
"a 	c #A96B3A",
"b 	c #E4E4E4",
"c 	c #805329",
"d 	c #B77F4F",
"e 	c #6C4419",
"f 	c #9C6638",
"g 	c #B77846",
"h 	c #643D17",
"i 	c #B57D50",
"j 	c #AB7245",
"k 	c #623711",
"l 	c #B26B35",
"m 	c #E3E3E3",
"n 	c #855428",
"o 	c #BC834F",
"p 	c #6E461D",
"q 	c #9E6335",
"r 	c #B77445",
"s 	c #633910",
"t 	c #B47648",
"u 	c #A96D40",
"v 	c #633714",
"w 	c #B36A36",
"x 	c #E2E2E2",
"y 	c #59381A",
"z 	c #7F5532",
"A 	c #4F3217",
"B 	c #6A4123",
"C 	c #82512E",
"D 	c #542F12",
"E 	c #804F2E",
"F 	c #512D12",
"G 	c #8F542C",
"H 	c #E1E1E1",
"I 	c #7D582F",
"J 	c #9F7342",
"K 	c #A47744",
"L 	c #A67946",
"M 	c #966B3E",
"N 	c #A8968A",
"O 	c #96918E",
"P 	c #54371C",
"Q 	c #E0E0E0",
"R 	c #5A3C19",
"S 	c #7A552B",
"T 	c #755328",
"U 	c #7E582D",
"V 	c #704C24",
"W 	c #69471F",
"X 	c #4C3015",
"Y 	c #3B271C",
"Z 	c #746A64",
"` 	c #553418",
" .	c #DFDFDF",
"..	c #5D3718",
"+.	c #6B4322",
"@.	c #42260C",
"#.	c #653C1F",
"$.	c #5D371A",
"%.	c #4B2B10",
"&.	c #6B3D1F",
"*.	c #7C4B29",
"=.	c #4A2811",
"-.	c #8A542C",
";.	c #DEDEDE",
">.	c #845329",
",.	c #9B6237",
"'.	c #593310",
").	c #A26538",
"!.	c #955B34",
"~.	c #6A3D1C",
"{.	c #95572E",
"].	c #AE6E41",
"^.	c #673819",
"/.	c #A66534",
"(.	c #DDDDDD",
"_.	c #8B592D",
":.	c #9F673C",
"<.	c #613913",
"[.	c #A96B3E",
"}.	c #9F673D",
"|.	c #62391A",
"1.	c #9F6035",
"2.	c #BF804D",
"3.	c #724020",
"4.	c #9F6231",
"5.	c #DCDCDC",
"6.	c #8F5D33",
"7.	c #AB7346",
"8.	c #5C3713",
"9.	c #B77847",
"0.	c #A66C41",
"a.	c #5C3416",
"b.	c #9F653A",
"c.	c #C2824F",
"d.	c #7B4926",
"e.	c #A86937",
"f.	c #DBDBDB",
"g.	c #855830",
"h.	c #A26F44",
"i.	c #523211",
"j.	c #B67D4D",
"k.	c #9E6940",
"l.	c #482C14",
"m.	c #8D5C35",
"n.	c #B67C4D",
"o.	c #5A351B",
"p.	c #A56B3A",
"q.	c #DADADA",
"r.	c #D9D9D9",
"s.	c #D8D8D8",
"t.	c #D7D7D7",
"u.	c #333333",
"v.	c #5C5C5C",
"w.	c #3C3C3C",
"x.	c #D5D5D5",
"y.	c #505050",
"z.	c #787878",
"A.	c #D4D4D4",
"B.	c #777777",
"C.	c #D3D3D3",
"D.	c #D2D2D2",
"E.	c #767676",
"F.	c #D1D1D1",
"G.	c #D0D0D0",
"H.	c #CFCFCF",
"                                                                ",
"  . . . . . . . . . . . . . . . . . . . . . . . . . . . . . .   ",
"  . + + + + + + + + + + + + + + + + + + + + + + + + + + + + .   ",
"  . @ @ @ @ @ @ @ @ @ @ @ @ @ @ @ @ @ @ @ @ @ @ @ @ @ @ @ @ .   ",
"  . # # # # # # # # # # # # # # # # # # # # # # # # # # # # .   ",
"  . $ $ $ $ $ $ $ $ % % % % % % % % % % % % $ $ $ $ $ $ $ $ .   ",
"  . & & & & & & & & % * = - ; > , ' ) ! ~ % & & & & & & & & .   ",
"  . { { { { { { { { % ] ^ / ( _ : < [ } | % { { { { { { { { .   ",
"  . 1 1 1 1 1 1 1 1 % 2 3 4 5 6 7 8 9 0 a % 1 1 1 1 1 1 1 1 .   ",
"  . b b b b b b b b % c d e f g h i j k l % b b b b b b b b .   ",
"  . m m m m m m m m % n o p q r s t u v w % m m m m m m m m .   ",
"  . x x x x x x x x % y z A B C D E C F G % x x x x x x x x .   ",
"  . H H H H H H H H % I J K K L L M N O P % H H H H H H H H .   ",
"  . Q Q Q Q Q Q Q Q % R S T U V W X Y Z ` % Q Q Q Q Q Q Q Q .   ",
"  .  . . . . . . . .% ..+.@.#.$.%.&.*.=.-.%  . . . . . . . ..   ",
"  . ;.;.;.;.;.;.;.;.% >.,.'.).!.~.{.].^./.% ;.;.;.;.;.;.;.;..   ",
"  . (.(.(.(.(.(.(.(.% _.:.<.[.}.|.1.2.3.4.% (.(.(.(.(.(.(.(..   ",
"  . 5.5.5.5.5.5.5.5.% 6.7.8.9.0.a.b.c.d.e.% 5.5.5.5.5.5.5.5..   ",
"  . f.f.f.f.f.f.f.5.% g.h.i.j.k.l.m.n.o.p.% 5.f.f.f.f.f.f.f..   ",
"  . q.q.q.q.q.q.q.q.% % % % % % % % % % % % q.q.q.q.q.q.q.q..   ",
"  . r.r.r.r.r.r.r.r.r.r.r.r.r.r.r.r.r.r.r.r.r.r.r.r.r.r.r.r..   ",
"  . s.s.s.s.s.s.s.s.s.s.s.s.s.s.s.s.s.s.s.s.s.s.s.s.s.s.s.s..   ",
"  . t.t.t.u.u.v.t.u.u.u.t.u.u.u.t.u.u.u.w.t.u.u.u.t.w.t.t.t..   ",
"  . x.x.x.w.x.w.x.w.x.w.x.w.x.w.x.w.H y.H z.w.x.w.x.w.x.x.x..   ",
"  . A.A.A.w.A.w.A.w.A.w.A.u.u.H A.w.H y.H B.u.u.u.A.w.A.A.A..   ",
"  . C.C.C.w.C.w.C.w.C.w.C.w.C.w.C.w.H y.H B.w.C.w.C.w.C.C.C..   ",
"  . D.D.D.w.D.w.D.u.u.u.D.w.D.w.D.w.H y.H E.w.D.w.D.u.u.y.D..   ",
"  . F.F.F.F.F.F.F.F.F.F.F.F.F.F.F.F.F.F.F.F.F.F.F.F.F.F.F.F..   ",
"  . G.G.G.G.G.G.G.G.G.G.G.G.G.G.G.G.G.G.G.G.G.G.G.G.G.G.G.G..   ",
"  . H.H.H.H.H.H.H.H.H.H.H.H.H.H.H.H.H.H.H.H.H.H.H.H.H.H.H.H..   ",
"  . . . . . . . . . . . . . . . . . . . . . . . . . . . . . .   ",
"                                                                "};
