/* XPM */
static char * door_magic_small_xpm[] = {
"16 16 54 1",
" 	c #999999",
".	c #ECECEC",
"+	c #EAEAEA",
"@	c #000000",
"#	c #E8E8E8",
"$	c #774E29",
"%	c #84582F",
"&	c #4F3B19",
"*	c #85572B",
"=	c #906032",
"-	c #9A642F",
";	c #E5E5E5",
">	c #875529",
",	c #946433",
"'	c #844F27",
")	c #966333",
"!	c #946332",
"~	c #E3E3E3",
"{	c #FFDA27",
"]	c #D2A500",
"^	c #BB8400",
"/	c #FFDD00",
"(	c #FFD64F",
"_	c #E1E1E1",
":	c #D8A500",
"<	c #F0C300",
"[	c #FCAA28",
"}	c #F5AD00",
"|	c #DFDFDF",
"1	c #764E28",
"2	c #84582E",
"3	c #7B5229",
"4	c #936131",
"5	c #A97F35",
"6	c #DDDDDD",
"7	c #79512A",
"8	c #86582F",
"9	c #744C27",
"0	c #946131",
"a	c #DBDBDB",
"b	c #865A2E",
"c	c #86582E",
"d	c #7E5429",
"e	c #986430",
"f	c #905F32",
"g	c #D9D9D9",
"h	c #D7D7D7",
"i	c #D4D4D4",
"j	c #7A522F",
"k	c #946231",
"l	c #8C5C31",
"m	c #78522A",
"n	c #D2D2D2",
"o	c #D0D0D0",
"                ",
" .............. ",
" ++@@@@@@@@@@++ ",
" ##@$%&*=&-$@## ",
" ;;@>,&')&!>@;; ",
" ~~@{]^{/^(/@~~ ",
" __@:<[::[}:@__ ",
" ||@12&34&5/@|| ",
" 66@78&90&::@66 ",
" aa@bc&de&fb@aa ",
" gg@{]^{/^(/@gg ",
" hh@:<[::[}:@hh ",
" ii@j)&3k&lm@ii ",
" ni@@@@@@@@@@in ",
" oooooooooooooo ",
"                "};
