/* XPM */
static char * door_locked_small_xpm[] = {
"16 16 69 1",
" 	c #999999",
".	c #ECECEC",
"+	c #EAEAEA",
"@	c #000000",
"#	c #E8E8E8",
"$	c #7B4D4D",
"%	c #9B6B3C",
"&	c #E7AB67",
"*	c #FFC77F",
"=	c #E5E5E5",
"-	c #615A1C",
";	c #E3E3E3",
">	c #766351",
",	c #775B48",
"'	c #836953",
")	c #AF917B",
"!	c #9F8367",
"~	c #BF9F8F",
"{	c #E1E1E1",
"]	c #806646",
"^	c #9F826F",
"/	c #A48061",
"(	c #A2836F",
"_	c #9B8B82",
":	c #636363",
"<	c #6F6F6F",
"[	c #585858",
"}	c #DFDFDF",
"|	c #795939",
"1	c #B3794B",
"2	c #EAB478",
"3	c #BC8249",
"4	c #C3A488",
"5	c #6C6C6C",
"6	c #4E4E4E",
"7	c #5F5F5F",
"8	c #DDDDDD",
"9	c #716732",
"0	c #B27D4B",
"a	c #E1A564",
"b	c #C1A184",
"c	c #767676",
"d	c #3A3A3A",
"e	c #626262",
"f	c #DBDBDB",
"g	c #7F6747",
"h	c #B17E48",
"i	c #BD834A",
"j	c #C4A58A",
"k	c #8D8D8D",
"l	c #6E6E6E",
"m	c #D9D9D9",
"n	c #7F5535",
"o	c #917058",
"p	c #A17F5D",
"q	c #97745B",
"r	c #AA968B",
"s	c #5B5B5B",
"t	c #686868",
"u	c #D7D7D7",
"v	c #93755B",
"w	c #9F877F",
"x	c #876750",
"y	c #937767",
"z	c #D4D4D4",
"A	c #6B6356",
"B	c #FFD39D",
"C	c #D2D2D2",
"D	c #D0D0D0",
"                ",
" .............. ",
" ++@@@@@@@@@@++ ",
" ##@$%&%&*&*@## ",
" ==@-%&%&*&*@== ",
" ;;@>,',)!~!@;; ",
" {{@]^/(_:<[@{{ ",
" }}@|1234567@}} ",
" 88@90a3bcde@88 ",
" ff@gh2ijkdl@ff ",
" mm@nopqrst6@mm ",
" uu@vwvwxxyx@uu ",
" zz@A%&%*B&B@zz ",
" Cz@@@@@@@@@@zC ",
" DDDDDDDDDDDDDD ",
"                "};
