/* XPM */
static char * door_normal_xpm[] = {
"32 32 62 1",
" 	c #999999",
".	c #FFFFFF",
"+	c #ECECEC",
"@	c #EBEBEB",
"#	c #EAEAEA",
"$	c #E9E9E9",
"%	c #000000",
"&	c #E8E8E8",
"*	c #7B4D4D",
"=	c #9B6B3C",
"-	c #FFC77F",
";	c #E7AB67",
">	c #E7E7E7",
",	c #615A1C",
"'	c #E5E5E5",
")	c #8D5E48",
"!	c #CF8F50",
"~	c #E4E4E4",
"{	c #766351",
"]	c #775B48",
"^	c #AF917B",
"/	c #836953",
"(	c #9F8367",
"_	c #BF9F8F",
":	c #E3E3E3",
"<	c #93755B",
"[	c #9F877F",
"}	c #876750",
"|	c #937767",
"1	c #E2E2E2",
"2	c #89561C",
"3	c #FFD39D",
"4	c #E1E1E1",
"5	c #70672F",
"6	c #E0E0E0",
"7	c #766F4D",
"8	c #DFDFDF",
"9	c #895A34",
"0	c #DEDEDE",
"a	c #DDDDDD",
"b	c #566348",
"c	c #DCDCDC",
"d	c #6B6356",
"e	c #DBDBDB",
"f	c #DADADA",
"g	c #D9D9D9",
"h	c #D8D8D8",
"i	c #D7D7D7",
"j	c #333333",
"k	c #5C5C5C",
"l	c #3C3C3C",
"m	c #D5D5D5",
"n	c #505050",
"o	c #787878",
"p	c #D4D4D4",
"q	c #777777",
"r	c #D3D3D3",
"s	c #D2D2D2",
"t	c #767676",
"u	c #D1D1D1",
"v	c #D0D0D0",
"w	c #CFCFCF",
"                                ",
" .............................. ",
" .++++++++++++++++++++++++++++. ",
" .@@@@@@@@@@@@@@@@@@@@@@@@@@@@. ",
" .############################. ",
" .$$$$$$$$%%%%%%%%%%%%$$$$$$$$. ",
" .&&&&&&&&%*=-;=;-=;-%&&&&&&&&. ",
" .>>>>>>>>%,=;;=;-=;-%>>>>>>>>. ",
" .''''''''%)=;!=;-=;-%''''''''. ",
" .~~~~~~~~%{]^/]^(]_(%~~~~~~~~. ",
" .::::::::%<[}<[}}[|}%::::::::. ",
" .11111111%2=-;=-3=;(%11111111. ",
" .44444444%5=;!=;-=|}%44444444. ",
" .66666666%7=-;=-3=;3%66666666. ",
" .88888888%9]^/]^(]_(%88888888. ",
" .00000000%<[}<[}}[|}%00000000. ",
" .aaaaaaaa%b=;!=;-=;-%aaaaaaaa. ",
" .cccccccc%d=-;=-3=;3%cccccccc. ",
" .eeeeeeee%d=;;=;-=;-%6eeeeeee. ",
" .ffffffff%%%%%%%%%%%%ffffffff. ",
" .gggggggggggggggggggggggggggg. ",
" .hhhhhhhhhhhhhhhhhhhhhhhhhhhh. ",
" .iiijjkijjjijjjijjjlijjjiliii. ",
" .mmmlmlmlmlmlmlml4n4olmlmlmmm. ",
" .ppplplplplpjj4pl4n4qjjjplppp. ",
" .rrrlrlrlrlrlrlrl4n4qlrlrlrrr. ",
" .ssslslsjjjslslsl4n4tlslsjjns. ",
" .uuuuuuuuuuuuuuuuuuuuuuuuuuuu. ",
" .vvvvvvvvvvvvvvvvvvvvvvvvvvvv. ",
" .wwwwwwwwwwwwwwwwwwwwwwwwwwww. ",
" .............................. ",
"                                "};
