/* XPM */
static char * door_quest_xpm[] = {
/* columns rows colors chars-per-pixel */
"32 32 69 1",
" 	c #999999",
".	c #FFFFFF",
"+	c #ECECEC",
"@	c #EBEBEB",
"#	c #EAEAEA",
"$	c #E9E9E9",
"%	c #000000",
"&	c #E8E8E8",
"*	c #7B4D4D",
"=	c #9B6B3C",
"-	c #FFC77F",
";	c #E7AB67",
">	c #E7E7E7",
",	c #615A1C",
"'	c #E5E5E5",
")	c #8D5E48",
"!	c #CF8F50",
"~	c #E4E4E4",
"{	c #766351",
"]	c #775B48",
"^	c #AF917B",
"/	c #836953",
"(	c #9F8367",
"_	c #BF9F8F",
":	c #E3E3E3",
"<	c #93755B",
"[	c #9F877F",
"}	c #876750",
"|	c #937767",
"1	c #E2E2E2",
"2	c #89561C",
"3	c #FFD39D",
"4	c #BA002C",
"5	c #A60027",
"6	c #E1E1E1",
"7	c #70672F",
"8	c #ED2DCB",
"9	c #AA0034",
"0	c #E0E0E0",
"a	c #766F4D",
"b	c #780028",
"c	c #DFDFDF",
"d	c #895A34",
"e	c #DEDEDE",
"f	c #DDDDDD",
"g	c #566348",
"h	c #DCDCDC",
"i	c #6B6356",
"j	c #DBDBDB",
"k	c #DADADA",
"l	c #D9D9D9",
"m	c #D8D8D8",
"n	c #D7D7D7",
"o	c #333333",
"p	c #A1A1A1",
"q	c #3C3C3C",
"r	c #D5D5D5",
"s	c #474747",
"t	c #A0A0A0",
"u	c #D4D4D4",
"v	c #9F9F9F",
"w	c #505050",
"x	c #D3D3D3",
"y	c #9E9E9E",
"z	c #D2D2D2",
"A	c #5A5A5A",
"B	c #D1D1D1",
"C	c #D0D0D0",
"D	c #CFCFCF",
"                                ",
" .............................. ",
" .++++++++++++++++++++++++++++. ",
" .@@@@@@@@@@@@@@@@@@@@@@@@@@@@. ",
" .############################. ",
" .$$$$$$$$%%%%%%%%%%%%$$$$$$$$. ",
" .&&&&&&&&%*=-;=;-=;-%&&&&&&&&. ",
" .>>>>>>>>%,=;;=;-=;-%>>>>>>>>. ",
" .''''''''%)=;!=;-=;-%''''''''. ",
" .~~~~~~~~%{]^/]^(]_(%~~~~~~~~. ",
" .::::::::%<[}<[}}[|}%::::::::. ",
" .11111111%2=-;=-345-%11111111. ",
" .66666666%7=;!=;-89-%66666666. ",
" .00000000%a=-;=-3bb3%00000000. ",
" .cccccccc%d]^/]^(]_(%cccccccc. ",
" .eeeeeeee%<[}<[}}[|}%eeeeeeee. ",
" .ffffffff%g=;!=;-=;-%ffffffff. ",
" .hhhhhhhh%i=-;=-3=;3%hhhhhhhh. ",
" .jjjjjjjh%i=;;=;-=;-%hjjjjjjj. ",
" .kkkkkkkk%%%%%%%%%%%%kkkkkkkk. ",
" .llllllllllllllllllllllllllll. ",
" .mmmmmmmmmmmmmmmmmmmmmmmmmmmm. ",
" .nnnnnooopqnqnooonooonooonnnn. ",
" .rrrrrqrstqrqrqrrrqrrrrqrrrrr. ",
" .uuuuuqusvququoowuooouuquuuuu. ",
" .xxxxxqxsyqxqxqxxxxxqxxqxxxxx. ",
" .zzzzzoooyAoozooozooozzqzzzzz. ",
" .BBBBBBqBBBBBBBBBBBBBBBBBBBBB. ",
" .CCCCCCCCCCCCCCCCCCCCCCCCCCCC. ",
" .DDDDDDDDDDDDDDDDDDDDDDDDDDDD. ",
" .............................. ",
"                                "};
