/* XPM */
static const char *door_normal_small_xpm[] = {
/* columns rows colors chars-per-pixel */
"16 16 36 1",
" 	c #999999",
".	c #ECECEC",
"+	c #EAEAEA",
"@	c #000000",
"#	c #E8E8E8",
"$	c #7B4D4D",
"%	c #9B6B3C",
"&	c #E7AB67",
"*	c #FFC77F",
"=	c #E5E5E5",
"-	c #615A1C",
";	c #E3E3E3",
">	c #766351",
",	c #775B48",
"'	c #836953",
")	c #AF917B",
"!	c #9F8367",
"~	c #BF9F8F",
"{	c #E1E1E1",
"]	c #93755B",
"^	c #9F877F",
"/	c #876750",
"(	c #937767",
"_	c #DFDFDF",
":	c #89561C",
"<	c #FFD39D",
"[	c #DDDDDD",
"}	c #766F4D",
"|	c #DBDBDB",
"1	c #D9D9D9",
"2	c #895A34",
"3	c #D7D7D7",
"4	c #D4D4D4",
"5	c #6B6356",
"6	c #D2D2D2",
"7	c #D0D0D0",
/* pixels */
"                ",
" .............. ",
" ++@@@@@@@@@@++ ",
" ##@$%&%&*&*@## ",
" ==@-%&%&*&*@== ",
" ;;@>,',)!~!@;; ",
" {{@]^]^//(/@{{ ",
" __@:%&%*<&<@__ ",
" [[@}%&%*<!!@[[ ",
" ||@}%&%*<&<@|| ",
" 11@2,',)!~!@11 ",
" 33@]^]^//(/@33 ",
" 44@5%&%*<&<@44 ",
" 64@@@@@@@@@@46 ",
" 77777777777777 ",
"                "
};
