/* XPM */
static char * door_magic_xpm[] = {
"32 32 95 2",
"  	c #999999",
". 	c #FFFFFF",
"+ 	c #ECECEC",
"@ 	c #EBEBEB",
"# 	c #EAEAEA",
"$ 	c #E9E9E9",
"% 	c #000000",
"& 	c #E8E8E8",
"* 	c #3B2A19",
"= 	c #986634",
"- 	c #875529",
"; 	c #946433",
"> 	c #4F3B19",
", 	c #844F27",
"' 	c #966333",
") 	c #946332",
"! 	c #E7E7E7",
"~ 	c #774E29",
"{ 	c #84582F",
"] 	c #85572B",
"^ 	c #906032",
"/ 	c #9A642F",
"( 	c #E5E5E5",
"_ 	c #E4E4E4",
": 	c #BC9E00",
"< 	c #BB8400",
"[ 	c #FFDA27",
"} 	c #D2A500",
"| 	c #FFDD00",
"1 	c #FFD64F",
"2 	c #E3E3E3",
"3 	c #F0C300",
"4 	c #FCAA28",
"5 	c #D8A500",
"6 	c #F5AD00",
"7 	c #E2E2E2",
"8 	c #845A2F",
"9 	c #764E28",
"0 	c #84582E",
"a 	c #7B5229",
"b 	c #936131",
"c 	c #A97F35",
"d 	c #E1E1E1",
"e 	c #79512A",
"f 	c #86582F",
"g 	c #744C27",
"h 	c #946131",
"i 	c #E0E0E0",
"j 	c #976535",
"k 	c #865A2E",
"l 	c #86582E",
"m 	c #7E5429",
"n 	c #986430",
"o 	c #905F32",
"p 	c #DFDFDF",
"q 	c #DEDEDE",
"r 	c #DDDDDD",
"s 	c #7A522F",
"t 	c #946231",
"u 	c #8C5C31",
"v 	c #78522A",
"w 	c #DCDCDC",
"x 	c #895D31",
"y 	c #734827",
"z 	c #986534",
"A 	c #774E27",
"B 	c #A06936",
"C 	c #8E6032",
"D 	c #7C512A",
"E 	c #DBDBDB",
"F 	c #7E4F28",
"G 	c #66431F",
"H 	c #82552C",
"I 	c #9F6834",
"J 	c #8F5E30",
"K 	c #80562C",
"L 	c #DADADA",
"M 	c #D9D9D9",
"N 	c #D8D8D8",
"O 	c #D7D7D7",
"P 	c #333333",
"Q 	c #A1A1A1",
"R 	c #3C3C3C",
"S 	c #343434",
"T 	c #8B8B8B",
"U 	c #D5D5D5",
"V 	c #383838",
"W 	c #D4D4D4",
"X 	c #363636",
"Y 	c #D3D3D3",
"Z 	c #D2D2D2",
"` 	c #888888",
" .	c #D1D1D1",
"..	c #D0D0D0",
"+.	c #CFCFCF",
"                                                                ",
"  . . . . . . . . . . . . . . . . . . . . . . . . . . . . . .   ",
"  . + + + + + + + + + + + + + + + + + + + + + + + + + + + + .   ",
"  . @ @ @ @ @ @ @ @ @ @ @ @ @ @ @ @ @ @ @ @ @ @ @ @ @ @ @ @ .   ",
"  . # # # # # # # # # # # # # # # # # # # # # # # # # # # # .   ",
"  . $ $ $ $ $ $ $ $ % % % % % % % % % % % % $ $ $ $ $ $ $ $ .   ",
"  . & & & & & & & & % * = - ; > , ' > ) - % & & & & & & & & .   ",
"  . ! ! ! ! ! ! ! ! % * = ~ { > ] ^ > / ~ % ! ! ! ! ! ! ! ! .   ",
"  . ( ( ( ( ( ( ( ( % * = - ; > , ' > ) - % ( ( ( ( ( ( ( ( .   ",
"  . _ _ _ _ _ _ _ _ % : < [ } < [ | < 1 | % _ _ _ _ _ _ _ _ .   ",
"  . 2 2 2 2 2 2 2 2 % 3 4 5 3 4 5 5 4 6 5 % 2 2 2 2 2 2 2 2 .   ",
"  . 7 7 7 7 7 7 7 7 % * 8 9 0 > a b > c | % 7 7 7 7 7 7 7 7 .   ",
"  . d d d d d d d d % * 8 e f > g h > 5 5 % d d d d d d d d .   ",
"  . i i i i i i i i % * j k l > m n > o k % i i i i i i i i .   ",
"  . p p p p p p p p % : < [ } < [ | < 1 | % p p p p p p p p .   ",
"  . q q q q q q q q % 3 4 5 3 4 5 5 4 6 5 % q q q q q q q q .   ",
"  . r r r r r r r r % * j s ' > a t > u v % r r r r r r r r .   ",
"  . w w w w w w w w % * x y z > A B > C D % w w w w w w w w .   ",
"  . E E E E E E E w % * 8 F G > H I > J K % w E E E E E E E .   ",
"  . L L L L L L L L % % % % % % % % % % % % L L L L L L L L .   ",
"  . M M M M M M M M M M M M M M M M M M M M M M M M M M M M .   ",
"  . N N N N N N N N N N N N N N N N N N N N N N N N N N N N .   ",
"  . O O O O O P P P P Q O P P P O P P P O R O S P P T O O O .   ",
"  . U U U U U V U V U V U R U R U R U U U R U R U U U U U U .   ",
"  . W W W W W V W V W V W P P P W R X P W R W R W W W W W W .   ",
"  . Y Y Y Y Y V Y V Y V Y R Y R Y R Y R Y R Y R Y Y Y Y Y Y .   ",
"  . Z Z Z Z Z V Z V Z V Z R Z R Z P P P Z R Z S P P ` Z Z Z .   ",
"  .  . . . . . . . . . . . . . . . . . . . . . . . . . . . ..   ",
"  . .........................................................   ",
"  . +.+.+.+.+.+.+.+.+.+.+.+.+.+.+.+.+.+.+.+.+.+.+.+.+.+.+.+..   ",
"  . . . . . . . . . . . . . . . . . . . . . . . . . . . . . .   ",
"                                                                "};
