/* XPM */
static char * door_normal_alt_small_xpm[] = {
"16 16 93 2",
"  	c #999999",
". 	c #ECECEC",
"+ 	c #EAEAEA",
"@ 	c #000000",
"# 	c #E8E8E8",
"$ 	c #724B23",
"% 	c #916335",
"& 	c #AC7948",
"* 	c #623E1A",
"= 	c #9F7047",
"- 	c #A26E44",
"; 	c #603816",
"> 	c #A96B3A",
", 	c #E5E5E5",
"' 	c #6C4419",
") 	c #9C6638",
"! 	c #B77846",
"~ 	c #643D17",
"{ 	c #B57D50",
"] 	c #AB7245",
"^ 	c #623711",
"/ 	c #B26B35",
"( 	c #E3E3E3",
"_ 	c #6E461D",
": 	c #9E6335",
"< 	c #B77445",
"[ 	c #633910",
"} 	c #B47648",
"| 	c #A96D40",
"1 	c #633714",
"2 	c #B36A36",
"3 	c #E1E1E1",
"4 	c #4F3217",
"5 	c #6A4123",
"6 	c #82512E",
"7 	c #542F12",
"8 	c #804F2E",
"9 	c #512D12",
"0 	c #8F542C",
"a 	c #DFDFDF",
"b 	c #A47744",
"c 	c #A67946",
"d 	c #966B3E",
"e 	c #A8968A",
"f 	c #96918E",
"g 	c #54371C",
"h 	c #DDDDDD",
"i 	c #755328",
"j 	c #7E582D",
"k 	c #704C24",
"l 	c #69471F",
"m 	c #4C3015",
"n 	c #3B271C",
"o 	c #746A64",
"p 	c #553418",
"q 	c #DBDBDB",
"r 	c #42260C",
"s 	c #653C1F",
"t 	c #5D371A",
"u 	c #4B2B10",
"v 	c #6B3D1F",
"w 	c #7C4B29",
"x 	c #4A2811",
"y 	c #8A542C",
"z 	c #D9D9D9",
"A 	c #593310",
"B 	c #A26538",
"C 	c #955B34",
"D 	c #6A3D1C",
"E 	c #95572E",
"F 	c #AE6E41",
"G 	c #673819",
"H 	c #A66534",
"I 	c #D7D7D7",
"J 	c #613913",
"K 	c #A96B3E",
"L 	c #9F673D",
"M 	c #62391A",
"N 	c #9F6035",
"O 	c #BF804D",
"P 	c #724020",
"Q 	c #9F6231",
"R 	c #D4D4D4",
"S 	c #5C3713",
"T 	c #B77847",
"U 	c #A66C41",
"V 	c #5C3416",
"W 	c #9F653A",
"X 	c #C2824F",
"Y 	c #7B4926",
"Z 	c #A86937",
"` 	c #D2D2D2",
" .	c #D0D0D0",
"                                ",
"  . . . . . . . . . . . . . .   ",
"  + + @ @ @ @ @ @ @ @ @ @ + +   ",
"  # # @ $ % & * = - ; > @ # #   ",
"  , , @ ' ) ! ~ { ] ^ / @ , ,   ",
"  ( ( @ _ : < [ } | 1 2 @ ( (   ",
"  3 3 @ 4 5 6 7 8 6 9 0 @ 3 3   ",
"  a a @ b b c c d e f g @ a a   ",
"  h h @ i j k l m n o p @ h h   ",
"  q q @ r s t u v w x y @ q q   ",
"  z z @ A B C D E F G H @ z z   ",
"  I I @ J K L M N O P Q @ I I   ",
"  R R @ S T U V W X Y Z @ R R   ",
"  ` R @ @ @ @ @ @ @ @ @ @ R `   ",
"   . . . . . . . . . . . . . .  ",
"                                "};
