/* XPM */
static char * door_archway_xpm[] = {
"32 32 45 1",
" 	c #999999",
".	c #FFFFFF",
"+	c #ECECEC",
"@	c #EBEBEB",
"#	c #EAEAEA",
"$	c #E9E9E9",
"%	c #000000",
"&	c #E8E8E8",
"*	c #CAC8A6",
"=	c #CFCEAD",
"-	c #CFCEAE",
";	c #E7E7E7",
">	c #E5E5E5",
",	c #D9D9D9",
"'	c #E4E4E4",
")	c #E3E3E3",
"!	c #CAC8A5",
"~	c #E2E2E2",
"{	c #D0CEAA",
"]	c #E1E1E1",
"^	c #D1D0AB",
"/	c #E0E0E0",
"(	c #CDCBA8",
"_	c #DFDFDF",
":	c #CECCA8",
"<	c #DEDEDE",
"[	c #D1D0AC",
"}	c #DDDDDD",
"|	c #CDCCAA",
"1	c #DCDCDC",
"2	c #C6C4AA",
"3	c #DBDBDB",
"4	c #8E8971",
"5	c #DADADA",
"6	c #D8D8D8",
"7	c #D7D7D7",
"8	c #333333",
"9	c #D5D5D5",
"0	c #3C3C3C",
"a	c #D4D4D4",
"b	c #D3D3D3",
"c	c #D2D2D2",
"d	c #D1D1D1",
"e	c #D0D0D0",
"f	c #CFCFCF",
"                                ",
" .............................. ",
" .++++++++++++++++++++++++++++. ",
" .@@@@@@@@@@@@@@@@@@@@@@@@@@@@. ",
" .############################. ",
" .$$$$$$$$%%%%%%%%%%%%$$$$$$$$. ",
" .&&&&&&&&%***=--=***%&&&&&&&&. ",
" .;;;;;;;;%**%%%%%%**%;;;;;;;;. ",
" .>>>>>>>>%*%%,,,,%%*%>>>>>>>>. ",
" .''''''''%*%,,,,,,%*%''''''''. ",
" .))))))))%!%,,,,,,%!%)))))))). ",
" .~~~~~~~~%{%,,,,,,%{%~~~~~~~~. ",
" .]]]]]]]]%^%,,,,,,%^%]]]]]]]]. ",
" .////////%(%,,,,,,%(%////////. ",
" .________%:%,,,,,,%:%________. ",
" .<<<<<<<<%[%,,,,,,%[%<<<<<<<<. ",
" .}}}}}}}}%|%,,,,,,%|%}}}}}}}}. ",
" .11111111%2%,,,,,,%2%11111111. ",
" .33333331%4%,,,,,,%4%13333333. ",
" .55555555%%%,,,,,,%%%55555555. ",
" .,,,,,,,,,,,,,,,,,,,,,,,,,,,,. ",
" .6666666666666666666666666666. ",
" .7777777888788878878787777777. ",
" .9999999090909090990909999999. ",
" .aaaaaaa888a88aa8aa888aaaaaaa. ",
" .bbbbbbb0b0b0b0b0bb0b0bbbbbbb. ",
" .ccccccc0c0c0c0c00c0c0ccccccc. ",
" .dddddddddddddddddddddddddddd. ",
" .eeeeeeeeeeeeeeeeeeeeeeeeeeee. ",
" .ffffffffffffffffffffffffffff. ",
" .............................. ",
"                                "};
