/* XPM */
static char * door_quest_small_xpm[] = {
"16 16 43 1",
" 	c #999999",
".	c #ECECEC",
"+	c #EAEAEA",
"@	c #000000",
"#	c #E8E8E8",
"$	c #7B4D4D",
"%	c #9B6B3C",
"&	c #E7AB67",
"*	c #FFC77F",
"=	c #E5E5E5",
"-	c #615A1C",
";	c #E3E3E3",
">	c #766351",
",	c #775B48",
"'	c #836953",
")	c #AF917B",
"!	c #9F8367",
"~	c #BF9F8F",
"{	c #E1E1E1",
"]	c #93755B",
"^	c #9F877F",
"/	c #876750",
"(	c #937767",
"_	c #DFDFDF",
":	c #89561C",
"<	c #FFD39D",
"[	c #BA002C",
"}	c #A60027",
"|	c #DDDDDD",
"1	c #70672F",
"2	c #CF8F50",
"3	c #ED2DCB",
"4	c #AA0034",
"5	c #DBDBDB",
"6	c #766F4D",
"7	c #780028",
"8	c #D9D9D9",
"9	c #895A34",
"0	c #D7D7D7",
"a	c #D4D4D4",
"b	c #6B6356",
"c	c #D2D2D2",
"d	c #D0D0D0",
"                ",
" .............. ",
" ++@@@@@@@@@@++ ",
" ##@$%&%&*&*@## ",
" ==@-%&%&*&*@== ",
" ;;@>,',)!~!@;; ",
" {{@]^]^//(/@{{ ",
" __@:%&%*<[}@__ ",
" ||@1%2%&*34@|| ",
" 55@6%&%*<77@55 ",
" 88@9,',)!~!@88 ",
" 00@]^]^//(/@00 ",
" aa@b%&%*<&<@aa ",
" ca@@@@@@@@@@ac ",
" dddddddddddddd ",
"                "};
