/* XPM */
static const char *editor_icon[] = {
/* columns rows colors chars-per-pixel */
"32 32 174 2 ",
"   c None",
".  c black",
"X  c #231809",
"o  c #1E220B",
"O  c #20220B",
"+  c #34270D",
"@  c #372A0D",
"#  c #372B0E",
"$  c #3E2E0F",
"%  c #4D3C12",
"&  c #503D12",
"*  c #523F12",
"=  c #3D4312",
"-  c #006300",
";  c #026704",
":  c #046C08",
">  c #0A7916",
",  c #0A7A16",
"<  c #0B7E1A",
"1  c #0C7E1A",
"2  c #544013",
"3  c #564113",
"4  c #524413",
"5  c #5B4514",
"6  c #5C4615",
"7  c #654A16",
"8  c #6B5418",
"9  c #715418",
"0  c #715518",
"q  c #7B5B1A",
"w  c #59601D",
"e  c #736F20",
"r  c #7D7B24",
"t  c #7E7E25",
"y  c #727C29",
"u  c #89631C",
"i  c #8B621C",
"p  c #8C661D",
"a  c #8C671D",
"s  c #8C681D",
"d  c #976D1F",
"f  c #986D1F",
"g  c #A67621",
"h  c #A67721",
"j  c #A77822",
"k  c #0F8623",
"l  c #108623",
"z  c #128B27",
"x  c #13902C",
"c  c #159430",
"v  c #179834",
"b  c #179934",
"n  c #199D39",
"m  c #1BA13D",
"M  c #7E8730",
"N  c #1DA641",
"B  c #21AF4A",
"V  c #23B34E",
"C  c #23B44E",
"Z  c #25B852",
"A  c #27BC57",
"S  c #2BC55F",
"D  c #2DCA64",
"F  c #31D26C",
"G  c #34DC75",
"H  c #36E07A",
"J  c #38E47E",
"K  c #8E8729",
"L  c #938E2B",
"P  c #958E29",
"I  c #858F36",
"U  c #A38023",
"Y  c #A48123",
"T  c #AE8724",
"R  c #B78525",
"E  c #B48D26",
"W  c #AF9226",
"Q  c #A99D2E",
"!  c #AD9D2F",
"~  c #AAA335",
"^  c #AFA73E",
"/  c #B1A230",
"(  c #BFB53E",
")  c #C08B27",
"_  c #C08E27",
"`  c #C9972A",
"'  c #CD9F2C",
"]  c #CFA92B",
"[  c #D6A42D",
"{  c #D6A52E",
"}  c #DBB22E",
"|  c #CFBA3D",
" . c #E6B02E",
".. c #EAB32F",
"X. c #E4AD31",
"o. c #EEB735",
"O. c #EEBB34",
"+. c #F0C63D",
"@. c #F1D034",
"#. c #F2D236",
"$. c #F2D635",
"%. c #F5E23A",
"&. c #F7F83B",
"*. c #A5AE4D",
"=. c #CABF4D",
"-. c #BCC660",
";. c #D5C84B",
":. c #E5D44F",
">. c #EBD54E",
",. c #EDDC56",
"<. c #F7F841",
"1. c #F8F940",
"2. c #F8F941",
"3. c #F8F945",
"4. c #F5E354",
"5. c #F4E15A",
"6. c #F6E55D",
"7. c #F6E562",
"8. c #F7E968",
"9. c #F7EA6A",
"0. c #F8EE6F",
"q. c #F9FA65",
"w. c #E3E87E",
"e. c #F9F272",
"r. c #F9FA75",
"t. c #FAFB78",
"y. c #F9FA7C",
"u. c #F9FA7D",
"i. c #FAFB7F",
"p. c #000099",
"a. c #03049C",
"s. c #07089F",
"d. c #0B0CA2",
"f. c #0E11A5",
"g. c #1619AB",
"h. c #191DAD",
"j. c #1D21B0",
"k. c #2125B3",
"l. c #2429B6",
"z. c #282DB9",
"x. c #2E35BF",
"c. c #323AC2",
"v. c #363EC5",
"b. c #3A42C7",
"n. c #3942C8",
"m. c #3D46CB",
"M. c #444ED0",
"N. c #444ED1",
"B. c #4852D3",
"V. c #4C56D6",
"C. c #4F5AD9",
"Z. c #535FDC",
"A. c #5663DF",
"S. c #5A67E2",
"D. c #5E6BE5",
"F. c #616FE7",
"G. c #6573EB",
"H. c #6877ED",
"J. c #6C7BF1",
"K. c #3CED87",
"L. c #44FF98",
"P. c #7384F6",
"I. c #7484F6",
"U. c #7788F9",
"Y. c #7B8CFC",
"T. c #7E90FF",
"R. c #FAFB82",
"E. c #FAFB88",
"W. c #FAFB8B",
"Q. c #FBFB96",
"!. c #FBFC95",
"~. c #FCFCA5",
"^. c #FEFEDE",
"/. c #FEFEE2",
/* pixels */
"                                                                ",
"                  X X X X X X X                                 ",
"              X X 9 p p 9 9 3 % X X     . .                     ",
"  . .     X X 9 j E { { { j j 9 3 % X 3 j .                     ",
"  . { $ X 3 9 j { 4.+.+.4.+.{ { j 3 # { T $                     ",
"  $ T . # 9 j { 4.+.{ +.{ { h 9 3 # { T 9 .                     ",
"  . 9 { +.# { +.4.+.4.+.{ j 3 # j { +.f $                       ",
"    $ f { +.# o.{ j j ' ' [ o.o.+.+.f 9 $ .                     ",
"    . 9 f [ +.+.4.4.4.4.+.+.+.[ f 0 0 $ j % .                   ",
"      # # # # ! +.q.q.q.o.# # @ # f j 0 j 9 .                   ",
"      # ..3.W # | >.e.| # ] 1.4 e.# Y { 9 d 0 .                 ",
"      # 1.^.. @.@ Q R.# } /.. 1.* R.# U { +.j 0 .               ",
"      # &.=.. <.7 e.;.4 &.^ . %.* e.| + j { d j 9 .             ",
"      $ * 1.%.$.L o o ;.4 &.@. .* i./ + 0 ` ) X.{ j .           ",
"      # r.* * * O M = O ;.* * * r.8.L @ 0 h { { j { +.. .       ",
"        # i.Q.~.O -.= = i.W.~.W.r.:.e @ 0 j s j 6 j j { +.. .   ",
"        @ 0.R.e.. *.I I !.!.7.i.5.K # 9 j s j j 9 . 6 j { O.+.. ",
"          # ,.e.R.. -.I y.r.9.6.~ # { R j { { j { 9 . 6 q j { . ",
"          . # # e.e.. e.. . . . . # u E { j +.{ 9 j { . 5 9 .   ",
"          . { 8 # r t . T.T.U.K.H . 0 i p 9 j { +.{ +.j . .     ",
"          . +.9 % # . L.Y.P.J G S.S . 3 i { 9 j { j 9 +.{ . .   ",
"            . { 0 . T.U.J.G.D.A.V.Z B . 3 q p [ j i { { +.j .   ",
"            . +.. Y.I.H.F.F S A C B v x . % * q s { j 9 j .     ",
"              . . J.G.D.D V.M.n.m v x h.. . $ * 3 q 9 s .       ",
"                . F.A.C.B.C N n x l k f.. 9 9 X $ # . .         ",
"                . Z.V.M.b.m b z h.> a.p.. { j 9 5 .             ",
"                . A m.b.x.l.l < d.a.p.p.. 9 6 + .               ",
"                  . c.z.k.h., : p.p.p.. . . . .                 ",
"                    . j.g.d.; - p.p.. . -.w y .                 ",
"                      . s.p.p.p.p..   . w.= I .                 ",
"                        . . . . .       .   .                   ",
"                                                                "
};
